<?xml version="1.0" standalone="no"?>
<!DOCTYPE svg PUBLIC "-//W3C//DTD SVG 20010904//EN"
 "http://www.w3.org/TR/2001/REC-SVG-20010904/DTD/svg10.dtd">
<svg version="1.0" xmlns="http://www.w3.org/2000/svg"
 width="600.000000pt" height="600.000000pt" viewBox="0 0 600.000000 600.000000"
 preserveAspectRatio="xMidYMid meet">
<metadata>
Created by potrace 1.11, written by Peter Selinger 2001-2013
</metadata>
<g transform="translate(0.000000,600.000000) scale(0.100000,-0.100000)"
fill="#000000" stroke="none">
<path d="M3302 5913 c-55 -19 -126 -91 -145 -147 -8 -24 -12 -48 -9 -51 7 -7
-152 1 -208 9 -14 3 -61 7 -105 11 -44 4 -89 9 -100 10 -11 2 -54 6 -95 10
-41 4 -93 8 -115 10 -22 2 -85 8 -140 14 -55 5 -129 13 -165 16 -36 4 -84 8
-107 11 -23 2 -44 1 -46 -3 -3 -4 -8 -39 -11 -78 -4 -38 -9 -86 -11 -105 -2
-19 -7 -71 -10 -114 -4 -43 -8 -87 -10 -97 -3 -16 3 -19 39 -19 40 0 42 -1 40
-27 -4 -54 -20 -218 -29 -293 -2 -19 -7 -69 -10 -110 -3 -41 -8 -86 -10 -100
-2 -14 -7 -59 -10 -100 -3 -41 -8 -86 -10 -100 -2 -14 -7 -61 -10 -105 -3 -44
-8 -87 -10 -95 -2 -8 -6 -55 -10 -103 -3 -48 -8 -96 -10 -105 -1 -9 -6 -56 -9
-104 -4 -48 -9 -98 -11 -110 -2 -13 -6 -54 -10 -93 -7 -83 -13 -143 -20 -205
-6 -58 -13 -129 -20 -210 -3 -36 -7 -81 -10 -100 -2 -19 -7 -69 -10 -110 -3
-41 -8 -86 -10 -100 -2 -14 -6 -59 -10 -100 -4 -41 -8 -86 -10 -100 -2 -14 -7
-59 -10 -100 -3 -41 -8 -86 -10 -100 -2 -14 -7 -61 -10 -105 -3 -43 -8 -93
-10 -110 -2 -16 -9 -79 -15 -140 -6 -60 -13 -132 -16 -160 -3 -27 -7 -73 -10
-101 l-6 -51 399 1 398 1 325 652 c179 359 329 652 333 653 5 0 6 -3 4 -7 -3
-5 -15 -65 -26 -135 -12 -69 -24 -135 -26 -146 -2 -11 -6 -35 -9 -53 -3 -19
-14 -90 -26 -159 -11 -69 -23 -141 -26 -160 -2 -19 -7 -44 -9 -56 -3 -12 -7
-39 -11 -60 -3 -21 -12 -73 -19 -114 -7 -41 -11 -77 -9 -79 2 -2 96 -3 209 -3
185 0 206 -2 200 -17 -3 -8 -19 -65 -35 -126 -16 -60 -33 -120 -36 -132 -3
-13 -4 -23 -2 -23 2 0 29 -4 59 -9 30 -6 77 -13 104 -16 28 -3 61 -8 75 -10
14 -2 57 -8 95 -14 39 -6 86 -13 105 -15 19 -3 82 -12 140 -20 58 -8 123 -17
145 -20 22 -3 64 -10 93 -14 29 -5 54 -6 56 -3 2 3 7 44 11 91 4 47 8 92 10
100 2 8 6 53 10 100 4 47 8 92 10 100 1 8 6 55 10 103 3 48 8 96 10 105 1 9 6
53 10 97 3 44 8 91 10 105 3 23 11 103 20 205 2 22 6 67 9 100 7 58 9 78 21
210 4 33 8 76 10 95 2 19 7 67 10 105 3 39 8 86 10 105 6 39 11 100 20 205 3
39 7 88 10 110 10 92 14 133 20 195 3 36 7 81 10 100 3 19 7 64 10 100 3 36 7
81 10 100 2 19 7 64 10 100 3 36 8 81 10 100 2 19 7 67 10 105 3 39 7 86 10
105 2 19 6 67 10 105 10 126 11 128 56 122 33 -4 39 -2 40 14 1 10 2 22 3 27
1 4 6 48 10 97 4 50 9 97 11 106 2 10 6 51 9 92 l7 75 -48 6 c-26 4 -79 9
-118 12 -38 2 -81 7 -95 9 -14 2 -59 6 -100 10 -41 3 -86 8 -100 10 -14 2 -59
7 -100 10 -41 4 -86 8 -100 10 -14 3 -54 7 -90 10 -36 3 -83 7 -105 9 -22 3
-74 8 -115 11 -105 9 -105 9 -108 56 -8 125 -124 230 -250 228 -26 0 -66 -7
-90 -16z m-712 -827 c41 -4 91 -9 110 -11 46 -5 130 -13 210 -20 98 -8 153
-16 161 -21 4 -2 6 -12 5 -22 -4 -18 -13 -110 -21 -202 -12 -141 -15 -169 -30
-300 -2 -19 -7 -69 -10 -110 -7 -84 -13 -112 -23 -106 -4 2 -41 7 -82 10 -73
7 -108 10 -200 20 -25 3 -78 8 -119 12 -41 3 -81 8 -90 9 -9 2 -29 4 -44 4
l-29 1 7 86 c4 48 8 94 10 103 1 9 6 48 9 86 3 39 8 90 11 115 2 25 7 70 9
100 5 54 10 103 22 208 3 29 9 50 12 48 4 -2 41 -7 82 -10z m1125 -111 c33 -3
80 -7 105 -10 25 -3 72 -7 105 -10 81 -6 187 -17 205 -20 8 -2 19 -4 23 -4 5
-1 6 -4 4 -8 -3 -5 -8 -44 -11 -88 -4 -44 -9 -98 -12 -120 -5 -45 -11 -106
-20 -210 -3 -38 -8 -77 -9 -86 -2 -8 -6 -55 -10 -105 -4 -49 -9 -96 -10 -104
-1 -11 -14 -15 -41 -14 -47 1 -199 14 -224 19 -9 2 -55 6 -101 10 -161 12
-219 23 -214 38 2 7 6 44 10 82 3 39 7 84 9 100 2 17 7 62 10 100 6 63 11 116
21 210 2 17 6 66 10 110 4 44 9 87 11 95 1 8 3 19 3 23 1 4 18 6 39 3 20 -3
64 -8 97 -11z m-1170 -1140 c22 -3 65 -7 95 -10 55 -6 75 -8 207 -20 97 -9
108 -11 107 -21 -1 -5 -5 -40 -8 -79 -4 -38 -9 -86 -10 -105 -2 -19 -7 -69
-10 -110 -4 -41 -9 -94 -11 -117 -10 -93 -14 -131 -21 -198 -3 -38 -7 -81 -9
-95 -2 -21 -8 -25 -31 -24 -47 2 -216 17 -319 29 -22 3 -69 7 -105 10 -94 8
-131 15 -126 24 3 4 7 37 10 72 3 35 10 111 16 169 6 58 13 130 15 160 3 30 7
73 9 95 3 22 8 72 12 110 11 109 12 120 13 123 1 2 29 0 64 -3 34 -4 80 -8
102 -10z m1010 -100 c108 -11 134 -13 210 -20 39 -3 108 -10 155 -16 47 -5 91
-9 99 -9 13 0 11 -76 -5 -199 -2 -20 -6 -58 -9 -86 -6 -70 -14 -163 -20 -210
-2 -22 -7 -69 -10 -105 -4 -36 -8 -78 -10 -95 -2 -16 -4 -36 -4 -43 -1 -7 -4
-11 -8 -9 -5 3 -44 8 -88 12 -44 4 -93 8 -110 10 -110 12 -157 17 -205 22 -30
2 -66 6 -80 7 -14 2 -39 4 -57 4 -27 2 -31 5 -28 25 2 12 6 54 10 92 3 39 8
88 10 110 2 22 7 67 10 100 3 33 8 80 11 105 2 25 7 70 9 100 11 127 17 186
18 195 2 12 19 25 27 20 3 -1 37 -6 75 -10z"/>
<path d="M3346 1923 c-9 -29 -96 -346 -96 -350 0 -2 75 -3 166 -3 l166 0 -6
-27 c-3 -16 -10 -55 -16 -88 -16 -93 -18 -106 -60 -335 -51 -277 -49 -269 -56
-310 -3 -19 -11 -61 -18 -93 -8 -31 -10 -59 -7 -62 4 -2 101 -4 217 -4 115 0
225 0 245 0 l35 -1 59 -147 c32 -82 60 -149 61 -151 2 -4 40 -11 93 -17 25 -3
55 -7 66 -9 36 -7 114 -18 220 -31 21 -3 50 -7 64 -9 14 -3 62 -10 106 -16 44
-6 91 -13 105 -15 14 -2 45 -7 70 -10 25 -3 56 -8 70 -10 14 -2 43 -6 65 -9
22 -3 90 -13 150 -22 61 -8 124 -17 140 -19 56 -7 140 -19 145 -20 3 -1 32 -5
65 -9 33 -5 67 -10 75 -11 8 -2 40 -6 70 -10 30 -4 64 -9 74 -11 11 -2 56 -8
100 -14 87 -12 108 -15 171 -24 22 -4 57 -9 78 -11 l37 -5 -2 752 c-3 659 -5
751 -18 753 -8 1 -53 8 -100 14 -47 6 -96 13 -110 15 -14 2 -46 7 -71 10 -25
4 -57 9 -70 11 -23 3 -83 11 -159 21 -19 2 -46 6 -60 9 -14 2 -45 7 -70 10
-45 5 -112 15 -140 20 -8 2 -40 6 -71 9 -31 4 -66 8 -76 10 -11 3 -44 7 -73
11 -29 4 -60 8 -69 10 -9 1 -43 6 -76 10 -32 4 -67 8 -76 10 -9 2 -40 6 -69
10 -29 4 -60 8 -69 10 -9 2 -44 6 -76 10 -33 4 -67 9 -75 10 -21 4 -88 14
-130 19 -135 18 -272 38 -288 41 -10 1 -45 6 -77 10 -33 4 -67 9 -76 10 -9 2
-40 6 -69 10 -29 4 -60 8 -69 10 -9 1 -41 6 -71 10 -30 3 -66 8 -80 10 -14 3
-47 7 -75 10 -27 3 -57 8 -65 10 -8 2 -38 7 -67 10 -44 5 -52 4 -57 -12z"/>
<path d="M4 1901 c-2 -2 -4 -340 -4 -751 l0 -747 1302 1 1302 1 7 25 c4 14 55
178 113 365 58 187 106 345 106 350 0 7 -56 10 -160 10 -113 0 -160 3 -160 11
0 6 6 24 14 40 14 28 53 116 136 304 21 47 67 152 104 234 36 82 66 152 66
155 0 7 -2819 8 -2826 2z"/>
</g>
</svg>
