<?xml version="1.0" encoding="utf-8"?>
<!-- Generator: Adobe Illustrator 18.1.1, SVG Export Plug-In . SVG Version: 6.00 Build 0)  -->
<svg version="1.1" id="Layer_1" xmlns="http://www.w3.org/2000/svg" xmlns:xlink="http://www.w3.org/1999/xlink" x="0px" y="0px"
	 viewBox="0 0 70 70" enable-background="new 0 0 70 70" xml:space="preserve">
<g>
	<polygon fill="#FFFFFF" points="39.1,47.4 37.9,51.7 41.8,51.7 39.9,62.4 45.7,62.4 47.1,65.9 70,69.2 70,69.2 70,51.7 	"/>
	<polygon fill="#FFFFFF" points="33.1,56.5 29.2,56.5 33.1,47.8 0,47.8 0,65.3 30.4,65.3 	"/>
</g>
<path fill="#FFFFFF" d="M54.1,5.2L42.5,4v0c0.2-1.6-1-3-2.6-3.2c-1.6-0.2-3,1-3.2,2.6l-0.3,0L24.1,2.2l-0.5,4.8l1,0.1l-3.7,37.7h9.2
	l7.8-15.6L36,41h4.9l-0.9,3.5l10.2,1.5L53.6,10l1,0.1l0.5-4.8L54.1,5.2z M33.6,34.4l-6.8-0.7l0.9-8.7l6.8,0.7L33.6,34.4z M35.1,19.9
	l-6.8-0.7l0.9-8.7l6.8,0.7L35.1,19.9z M46.2,35.7L39.5,35l0.9-8.7l6.8,0.7L46.2,35.7z M47.6,21.1l-6.8-0.7l0.9-8.7l6.8,0.7
	L47.6,21.1z"/>
</svg>
